<svg xmlns="http://www.w3.org/2000/svg" viewBox="0 0 200 200" width="200" height="200">
  <!-- Círculo externo -->
  <circle cx="100" cy="100" r="97" fill="#1a1a1a" stroke="#b8936a" stroke-width="2.5"/>
  <!-- Círculo interno -->
  <circle cx="100" cy="100" r="88" fill="none" stroke="#b8936a" stroke-width="1"/>

  <!-- X cruzado -->
  <line x1="44" y1="44" x2="156" y2="156" stroke="#b8936a" stroke-width="1.5" opacity="0.6"/>
  <line x1="156" y1="44" x2="44" y2="156" stroke="#b8936a" stroke-width="1.5" opacity="0.6"/>

  <!-- Letra L -->
  <path d="M38 68 L38 135 L72 135 L72 124 L50 124 L50 68 Z" fill="#cccccc"/>

  <!-- Letra K -->
  <path d="M112 68 L112 135 L124 135 L124 106 L150 135 L165 135 L136 102 L163 68 L148 68 L124 98 L124 68 Z" fill="#cccccc"/>

  <!-- Coroa -->
  <g transform="translate(100,20)" fill="#b8936a">
    <path d="M0,-16 L6,0 L16,-10 L12,8 L-12,8 L-16,-10 L-6,0 Z"/>
    <rect x="-14" y="8" width="28" height="10" rx="2"/>
    <circle cx="0" cy="-17" r="3"/>
    <circle cx="17" cy="-9" r="2.5"/>
    <circle cx="-17" cy="-9" r="2.5"/>
  </g>

  <!-- Setas inferiores -->
  <g stroke="#b8936a" stroke-width="1.3" fill="none" opacity="0.8">
    <!-- esquerda -->
    <line x1="44" y1="158" x2="72" y2="148"/>
    <line x1="44" y1="158" x2="50" y2="150"/>
    <line x1="44" y1="158" x2="52" y2="158"/>
    <line x1="57" y1="154" x2="64" y2="148"/>
    <!-- direita -->
    <line x1="156" y1="158" x2="128" y2="148"/>
    <line x1="156" y1="158" x2="150" y2="150"/>
    <line x1="156" y1="158" x2="148" y2="158"/>
    <line x1="143" y1="154" x2="136" y2="148"/>
  </g>

  <!-- EST 2017 -->
  <text x="100" y="174" font-family="Arial, sans-serif" font-size="12" font-weight="bold" fill="#cccccc" text-anchor="middle" letter-spacing="4">EST  2017</text>
</svg>
